<svg width="415" height="104" viewBox="0 0 415 104" fill="none" xmlns="http://www.w3.org/2000/svg">
<path d="M92.5301 28.6C95.0173 27.1641 98.2239 28.0079 99.4044 30.626C104.086 41.0084 105.249 52.6928 102.626 63.8743C99.6061 76.7509 91.7927 87.9928 80.7765 95.3119C69.7602 102.631 56.369 105.478 43.3282 103.272C30.2873 101.066 18.577 93.9741 10.5806 83.4392C2.58413 72.9043 -1.0975 59.7181 0.285 46.5646C1.6675 33.411 8.01022 21.2785 18.0223 12.6363C28.0343 3.99413 40.9632 -0.508197 54.1777 0.0456529C65.6525 0.526592 76.5938 4.78871 85.3348 12.09C87.5389 13.931 87.4893 17.2464 85.4375 19.2558C83.3856 21.2651 80.1109 21.2007 77.8614 19.4153C71.0078 13.9757 62.5725 10.8066 53.7422 10.4365C43.1706 9.99345 32.8275 13.5953 24.8178 20.509C16.8082 27.4228 11.734 37.1288 10.628 47.6517C9.52203 58.1745 12.4673 68.7234 18.8645 77.1514C25.2617 85.5793 34.6299 91.2529 45.0626 93.0175C55.4952 94.782 66.2082 92.5049 75.0212 86.6496C83.8342 80.7942 90.0849 71.8007 92.501 61.4994C94.5192 52.8949 93.7353 43.9181 90.3392 35.8541C89.2245 33.2074 90.043 30.036 92.5301 28.6Z" fill="#009DD3"/>
<path d="M152.448 28.8041C158.208 28.8041 162.966 30.3188 166.72 33.3481C170.518 36.3775 172.971 40.4735 174.08 45.6361H162.496C161.643 43.5455 160.32 41.9028 158.528 40.7081C156.779 39.5135 154.688 38.9161 152.256 38.9161C149.056 38.9161 146.475 40.0895 144.512 42.4361C142.55 44.7828 141.568 47.9188 141.568 51.8441C141.568 55.7695 142.55 58.9055 144.512 61.2521C146.475 63.5561 149.056 64.7081 152.256 64.7081C154.688 64.7081 156.779 64.1108 158.528 62.9161C160.32 61.7215 161.643 60.1001 162.496 58.0521H174.08C172.971 63.1721 170.518 67.2681 166.72 70.3401C162.966 73.3695 158.208 74.8841 152.448 74.8841C148.054 74.8841 144.192 73.9241 140.864 72.0041C137.536 70.0415 134.955 67.3108 133.12 63.8121C131.328 60.3135 130.432 56.3241 130.432 51.8441C130.432 47.3641 131.328 43.3748 133.12 39.8761C134.955 36.3775 137.536 33.6681 140.864 31.7481C144.192 29.7855 148.054 28.8041 152.448 28.8041ZM179.19 28.7401C179.19 27.0761 179.787 25.7108 180.982 24.6441C182.176 23.5348 183.755 22.9801 185.718 22.9801C187.68 22.9801 189.259 23.5348 190.454 24.6441C191.648 25.7108 192.246 27.0761 192.246 28.7401C192.246 30.3615 191.648 31.7268 190.454 32.8361C189.259 33.9028 187.68 34.4361 185.718 34.4361C183.755 34.4361 182.176 33.9028 180.982 32.8361C179.787 31.7268 179.19 30.3615 179.19 28.7401ZM191.158 38.7881V74.5001H180.214V38.7881H191.158ZM209.658 45.5081C211.023 43.3321 212.772 41.6041 214.906 40.3241C217.082 39.0441 219.428 38.4041 221.946 38.4041V50.1161H218.81C215.908 50.1161 213.647 50.7348 212.026 51.9721C210.447 53.2095 209.658 55.3001 209.658 58.2441V74.5001H198.714V38.7881H209.658V45.5081ZM242.654 38.3401C247.262 38.3401 251.124 39.6201 254.238 42.1801C257.353 44.6975 259.316 48.1748 260.126 52.6121H248.542C248.201 51.0761 247.497 49.8815 246.43 49.0281C245.364 48.1748 244.02 47.7481 242.398 47.7481C240.478 47.7481 238.9 48.5161 237.662 50.0521C236.425 51.5455 235.806 53.7428 235.806 56.6441C235.806 59.5455 236.425 61.7641 237.662 63.3001C238.9 64.7935 240.478 65.5401 242.398 65.5401C244.02 65.5401 245.364 65.1135 246.43 64.2601C247.497 63.4068 248.201 62.2121 248.542 60.6761H260.126C259.316 65.1135 257.353 68.6121 254.238 71.1721C251.124 73.6895 247.262 74.9481 242.654 74.9481C239.156 74.9481 236.041 74.2228 233.31 72.7721C230.622 71.2788 228.51 69.1455 226.974 66.3721C225.438 63.5988 224.67 60.3561 224.67 56.6441C224.67 52.8895 225.417 49.6468 226.91 46.9161C228.446 44.1428 230.58 42.0308 233.31 40.5801C236.041 39.0868 239.156 38.3401 242.654 38.3401ZM301.359 38.7881V74.5001H290.351V68.0361C289.327 70.1268 287.791 71.7908 285.743 73.0281C283.737 74.2655 281.391 74.8841 278.703 74.8841C274.607 74.8841 271.343 73.5188 268.911 70.7881C266.521 68.0575 265.327 64.3028 265.327 59.5241V38.7881H276.207V58.1801C276.207 60.6121 276.825 62.5108 278.063 63.8761C279.343 65.1988 281.049 65.8601 283.183 65.8601C285.401 65.8601 287.151 65.1561 288.431 63.7481C289.711 62.3401 290.351 60.3348 290.351 57.7321V38.7881H301.359ZM319.845 27.1401V74.5001H308.901V27.1401H319.845ZM340.969 38.3401C343.7 38.3401 346.047 38.9588 348.009 40.1961C349.972 41.4335 351.423 43.1188 352.361 45.2521V38.7881H363.241V74.5001H352.361V68.0361C351.423 70.1695 349.972 71.8548 348.009 73.0921C346.047 74.3295 343.7 74.9481 340.969 74.9481C338.025 74.9481 335.38 74.2228 333.033 72.7721C330.729 71.2788 328.895 69.1455 327.529 66.3721C326.207 63.5988 325.545 60.3561 325.545 56.6441C325.545 52.8895 326.207 49.6468 327.529 46.9161C328.895 44.1428 330.729 42.0308 333.033 40.5801C335.38 39.0868 338.025 38.3401 340.969 38.3401ZM344.489 47.9401C342.143 47.9401 340.244 48.7081 338.793 50.2441C337.385 51.7801 336.681 53.9135 336.681 56.6441C336.681 59.3748 337.385 61.5081 338.793 63.0441C340.244 64.5801 342.143 65.3481 344.489 65.3481C346.793 65.3481 348.671 64.5588 350.121 62.9801C351.615 61.4015 352.361 59.2895 352.361 56.6441C352.361 53.9561 351.615 51.8441 350.121 50.3081C348.671 48.7295 346.793 47.9401 344.489 47.9401ZM381.72 45.5081C383.086 43.3321 384.835 41.6041 386.968 40.3241C389.144 39.0441 391.491 38.4041 394.008 38.4041V50.1161H390.872C387.971 50.1161 385.71 50.7348 384.088 51.9721C382.51 53.2095 381.72 55.3001 381.72 58.2441V74.5001H370.776V38.7881H381.72V45.5081Z" fill="#009DD3"/>
</svg>
