<svg width="438" height="143" viewBox="0 0 438 143" fill="none" xmlns="http://www.w3.org/2000/svg">
<path d="M111.563 47.6333C114.05 46.1974 117.257 47.0412 118.438 49.6592C123.119 60.0417 124.282 71.7261 121.659 82.9076C118.639 95.7842 110.826 107.026 99.8097 114.345C88.7934 121.664 75.4022 124.511 62.3613 122.305C49.3205 120.099 37.6102 113.007 29.6138 102.472C21.6173 91.9375 17.9357 78.7514 19.3182 65.5978C20.7007 52.4443 27.0434 40.3117 37.0555 31.6696C47.0675 23.0274 59.9964 18.5251 73.2109 19.0789C84.6857 19.5599 95.627 23.822 104.368 31.1232C106.572 32.9643 106.523 36.2797 104.471 38.2891C102.419 40.2984 99.1441 40.2339 96.8946 38.4486C90.041 33.009 81.6056 29.8399 72.7753 29.4698C62.2038 29.0267 51.8607 32.6286 43.851 39.5423C35.8414 46.4561 30.7672 56.1621 29.6612 66.6849C28.5552 77.2078 31.5005 87.7567 37.8977 96.1846C44.2948 104.613 53.6631 110.286 64.0957 112.051C74.5284 113.815 85.2414 111.538 94.0544 105.683C102.867 99.8275 109.118 90.834 111.534 80.5327C113.552 71.9282 112.769 62.9514 109.372 54.8874C108.258 52.2407 109.076 49.0693 111.563 47.6333Z" fill="url(#paint0_angular_160_925)"/>
<path d="M174.515 30.8372C180.275 30.8372 185.032 32.3519 188.787 35.3812C192.584 38.4105 195.037 42.5065 196.147 47.6692H184.563C183.709 45.5785 182.387 43.9359 180.595 42.7412C178.845 41.5465 176.755 40.9492 174.323 40.9492C171.123 40.9492 168.541 42.1225 166.579 44.4692C164.616 46.8159 163.635 49.9519 163.635 53.8772C163.635 57.8025 164.616 60.9385 166.579 63.2852C168.541 65.5892 171.123 66.7412 174.323 66.7412C176.755 66.7412 178.845 66.1439 180.595 64.9492C182.387 63.7545 183.709 62.1332 184.563 60.0852H196.147C195.037 65.2052 192.584 69.3012 188.787 72.3732C185.032 75.4025 180.275 76.9172 174.515 76.9172C170.12 76.9172 166.259 75.9572 162.931 74.0372C159.603 72.0745 157.021 69.3439 155.187 65.8452C153.395 62.3465 152.499 58.3572 152.499 53.8772C152.499 49.3972 153.395 45.4079 155.187 41.9092C157.021 38.4105 159.603 35.7012 162.931 33.7812C166.259 31.8185 170.12 30.8372 174.515 30.8372ZM201.256 30.7732C201.256 29.1092 201.853 27.7439 203.048 26.6772C204.243 25.5679 205.821 25.0132 207.784 25.0132C209.747 25.0132 211.325 25.5679 212.52 26.6772C213.715 27.7439 214.312 29.1092 214.312 30.7732C214.312 32.3945 213.715 33.7599 212.52 34.8692C211.325 35.9359 209.747 36.4692 207.784 36.4692C205.821 36.4692 204.243 35.9359 203.048 34.8692C201.853 33.7599 201.256 32.3945 201.256 30.7732ZM213.224 40.8212V76.5332H202.28V40.8212H213.224ZM231.724 47.5412C233.089 45.3652 234.839 43.6372 236.972 42.3572C239.148 41.0772 241.495 40.4372 244.012 40.4372V52.1492H240.876C237.975 52.1492 235.713 52.7679 234.092 54.0052C232.513 55.2425 231.724 57.3332 231.724 60.2772V76.5332H220.78V40.8212H231.724V47.5412ZM264.721 40.3732C269.329 40.3732 273.19 41.6532 276.305 44.2132C279.419 46.7305 281.382 50.2079 282.193 54.6452H270.609C270.267 53.1092 269.563 51.9145 268.497 51.0612C267.43 50.2079 266.086 49.7812 264.465 49.7812C262.545 49.7812 260.966 50.5492 259.729 52.0852C258.491 53.5785 257.873 55.7759 257.873 58.6772C257.873 61.5785 258.491 63.7972 259.729 65.3332C260.966 66.8265 262.545 67.5732 264.465 67.5732C266.086 67.5732 267.43 67.1465 268.497 66.2932C269.563 65.4399 270.267 64.2452 270.609 62.7092H282.193C281.382 67.1465 279.419 70.6452 276.305 73.2052C273.19 75.7225 269.329 76.9812 264.721 76.9812C261.222 76.9812 258.107 76.2559 255.377 74.8052C252.689 73.3119 250.577 71.1785 249.041 68.4052C247.505 65.6319 246.737 62.3892 246.737 58.6772C246.737 54.9225 247.483 51.6799 248.977 48.9492C250.513 46.1759 252.646 44.0639 255.377 42.6132C258.107 41.1199 261.222 40.3732 264.721 40.3732ZM323.425 40.8212V76.5332H312.417V70.0692C311.393 72.1599 309.857 73.8239 307.809 75.0612C305.804 76.2985 303.457 76.9172 300.769 76.9172C296.673 76.9172 293.409 75.5519 290.977 72.8212C288.588 70.0905 287.393 66.3359 287.393 61.5572V40.8212H298.273V60.2132C298.273 62.6452 298.892 64.5439 300.129 65.9092C301.409 67.2319 303.116 67.8932 305.249 67.8932C307.468 67.8932 309.217 67.1892 310.497 65.7812C311.777 64.3732 312.417 62.3679 312.417 59.7652V40.8212H323.425ZM341.912 29.1732V76.5332H330.968V29.1732H341.912ZM363.036 40.3732C365.766 40.3732 368.113 40.9919 370.076 42.2292C372.038 43.4665 373.489 45.1519 374.428 47.2852V40.8212H385.308V76.5332H374.428V70.0692C373.489 72.2025 372.038 73.8879 370.076 75.1252C368.113 76.3625 365.766 76.9812 363.036 76.9812C360.092 76.9812 357.446 76.2559 355.1 74.8052C352.796 73.3119 350.961 71.1785 349.596 68.4052C348.273 65.6319 347.612 62.3892 347.612 58.6772C347.612 54.9225 348.273 51.6799 349.596 48.9492C350.961 46.1759 352.796 44.0639 355.1 42.6132C357.446 41.1199 360.092 40.3732 363.036 40.3732ZM366.556 49.9732C364.209 49.9732 362.31 50.7412 360.86 52.2772C359.452 53.8132 358.748 55.9465 358.748 58.6772C358.748 61.4079 359.452 63.5412 360.86 65.0772C362.31 66.6132 364.209 67.3812 366.556 67.3812C368.86 67.3812 370.737 66.5919 372.188 65.0132C373.681 63.4345 374.428 61.3225 374.428 58.6772C374.428 55.9892 373.681 53.8772 372.188 52.3412C370.737 50.7625 368.86 49.9732 366.556 49.9732ZM403.787 47.5412C405.152 45.3652 406.901 43.6372 409.035 42.3572C411.211 41.0772 413.557 40.4372 416.075 40.4372V52.1492H412.939C410.037 52.1492 407.776 52.7679 406.155 54.0052C404.576 55.2425 403.787 57.3332 403.787 60.2772V76.5332H392.843V40.8212H403.787V47.5412Z" fill="#009DD3"/>
<path d="M169.507 109.037C169.507 110.717 169.155 112.197 168.451 113.477C167.747 114.757 166.723 115.757 165.379 116.477C164.051 117.181 162.467 117.533 160.627 117.533H154.603V100.589H160.627C162.467 100.589 164.051 100.941 165.379 101.645C166.723 102.333 167.747 103.317 168.451 104.597C169.155 105.861 169.507 107.341 169.507 109.037ZM160.339 114.509C162.163 114.509 163.571 114.029 164.563 113.069C165.571 112.109 166.075 110.765 166.075 109.037C166.075 107.293 165.571 105.941 164.563 104.981C163.571 104.021 162.163 103.541 160.339 103.541H157.987V114.509H160.339ZM182.144 103.277V107.669H188.144V110.261H182.144V114.821H188.864V117.533H178.76V100.589H188.864V103.277H182.144ZM209.73 112.901C209.73 113.765 209.514 114.565 209.082 115.301C208.65 116.021 208.01 116.605 207.162 117.053C206.314 117.485 205.282 117.701 204.066 117.701C202.866 117.701 201.794 117.501 200.85 117.101C199.906 116.685 199.146 116.093 198.57 115.325C198.01 114.557 197.69 113.661 197.61 112.637H201.21C201.29 113.325 201.562 113.901 202.026 114.365C202.506 114.813 203.138 115.037 203.922 115.037C204.626 115.037 205.162 114.853 205.53 114.485C205.914 114.101 206.106 113.613 206.106 113.021C206.106 112.493 205.954 112.061 205.65 111.725C205.346 111.373 204.962 111.093 204.498 110.885C204.034 110.677 203.394 110.437 202.578 110.165C201.522 109.813 200.658 109.469 199.986 109.133C199.314 108.781 198.738 108.277 198.258 107.621C197.794 106.965 197.562 106.109 197.562 105.053C197.562 103.597 198.082 102.453 199.122 101.621C200.178 100.773 201.57 100.349 203.298 100.349C205.09 100.349 206.514 100.781 207.57 101.645C208.642 102.509 209.25 103.661 209.394 105.101H205.746C205.65 104.493 205.394 103.997 204.978 103.613C204.562 103.213 203.994 103.013 203.274 103.013C202.65 103.013 202.146 103.181 201.762 103.517C201.378 103.837 201.186 104.309 201.186 104.933C201.186 105.429 201.33 105.845 201.618 106.181C201.922 106.501 202.298 106.765 202.746 106.973C203.21 107.181 203.834 107.413 204.618 107.669C205.706 108.053 206.586 108.413 207.258 108.749C207.946 109.085 208.53 109.589 209.01 110.261C209.49 110.933 209.73 111.813 209.73 112.901ZM222.326 100.589V117.533H218.942V100.589H222.326ZM239.956 100.421C242.02 100.421 243.732 100.933 245.092 101.957C246.452 102.965 247.324 104.333 247.708 106.061H244.156C243.82 105.293 243.284 104.685 242.548 104.237C241.828 103.773 240.972 103.541 239.98 103.541C239.004 103.541 238.14 103.765 237.388 104.213C236.636 104.661 236.052 105.301 235.636 106.133C235.22 106.965 235.012 107.941 235.012 109.061C235.012 110.837 235.484 112.221 236.428 113.213C237.388 114.205 238.692 114.701 240.34 114.701C241.556 114.701 242.596 114.341 243.46 113.621C244.34 112.901 244.908 111.901 245.164 110.621H239.428V108.197H247.996V111.461C247.756 112.581 247.284 113.613 246.58 114.557C245.892 115.501 244.98 116.261 243.844 116.837C242.724 117.397 241.436 117.677 239.98 117.677C238.316 117.677 236.844 117.317 235.564 116.597C234.3 115.861 233.316 114.845 232.612 113.549C231.924 112.237 231.58 110.741 231.58 109.061C231.58 107.381 231.924 105.893 232.612 104.597C233.316 103.285 234.3 102.261 235.564 101.525C236.828 100.789 238.292 100.421 239.956 100.421ZM271.602 117.533H268.218L260.634 106.013V117.533H257.25V100.589H260.634L268.218 112.205V100.589H271.602V117.533ZM304.97 112.901C304.97 113.765 304.754 114.565 304.322 115.301C303.89 116.021 303.25 116.605 302.402 117.053C301.554 117.485 300.522 117.701 299.306 117.701C298.106 117.701 297.034 117.501 296.09 117.101C295.146 116.685 294.386 116.093 293.81 115.325C293.25 114.557 292.93 113.661 292.85 112.637H296.45C296.53 113.325 296.802 113.901 297.266 114.365C297.746 114.813 298.378 115.037 299.162 115.037C299.866 115.037 300.402 114.853 300.77 114.485C301.154 114.101 301.346 113.613 301.346 113.021C301.346 112.493 301.194 112.061 300.89 111.725C300.586 111.373 300.202 111.093 299.738 110.885C299.274 110.677 298.634 110.437 297.818 110.165C296.762 109.813 295.898 109.469 295.226 109.133C294.554 108.781 293.978 108.277 293.498 107.621C293.034 106.965 292.802 106.109 292.802 105.053C292.802 103.597 293.322 102.453 294.362 101.621C295.418 100.773 296.81 100.349 298.538 100.349C300.33 100.349 301.754 100.781 302.81 101.645C303.882 102.509 304.49 103.661 304.634 105.101H300.986C300.89 104.493 300.634 103.997 300.218 103.613C299.802 103.213 299.234 103.013 298.514 103.013C297.89 103.013 297.386 103.181 297.002 103.517C296.618 103.837 296.426 104.309 296.426 104.933C296.426 105.429 296.57 105.845 296.858 106.181C297.162 106.501 297.538 106.765 297.986 106.973C298.45 107.181 299.074 107.413 299.858 107.669C300.946 108.053 301.826 108.413 302.498 108.749C303.186 109.085 303.77 109.589 304.25 110.261C304.73 110.933 304.97 111.813 304.97 112.901ZM327.839 100.589L322.103 111.605V117.533H318.695V111.605L312.935 100.589H316.823L320.423 108.005L324.023 100.589H327.839ZM348.012 112.901C348.012 113.765 347.796 114.565 347.364 115.301C346.932 116.021 346.292 116.605 345.444 117.053C344.596 117.485 343.564 117.701 342.348 117.701C341.148 117.701 340.076 117.501 339.132 117.101C338.188 116.685 337.428 116.093 336.852 115.325C336.292 114.557 335.972 113.661 335.892 112.637H339.492C339.572 113.325 339.844 113.901 340.308 114.365C340.788 114.813 341.42 115.037 342.204 115.037C342.908 115.037 343.444 114.853 343.812 114.485C344.196 114.101 344.388 113.613 344.388 113.021C344.388 112.493 344.236 112.061 343.932 111.725C343.628 111.373 343.244 111.093 342.78 110.885C342.316 110.677 341.676 110.437 340.86 110.165C339.804 109.813 338.94 109.469 338.268 109.133C337.596 108.781 337.02 108.277 336.54 107.621C336.076 106.965 335.844 106.109 335.844 105.053C335.844 103.597 336.364 102.453 337.404 101.621C338.46 100.773 339.852 100.349 341.58 100.349C343.372 100.349 344.796 100.781 345.852 101.645C346.924 102.509 347.532 103.661 347.676 105.101H344.028C343.932 104.493 343.676 103.997 343.26 103.613C342.844 103.213 342.276 103.013 341.556 103.013C340.932 103.013 340.428 103.181 340.044 103.517C339.66 103.837 339.468 104.309 339.468 104.933C339.468 105.429 339.612 105.845 339.9 106.181C340.204 106.501 340.58 106.765 341.028 106.973C341.492 107.181 342.116 107.413 342.9 107.669C343.988 108.053 344.868 108.413 345.54 108.749C346.228 109.085 346.812 109.589 347.292 110.261C347.772 110.933 348.012 111.813 348.012 112.901ZM368.745 100.589V103.277H364.065V117.533H360.681V103.277H356.025V100.589H368.745ZM380.711 103.277V107.669H386.711V110.261H380.711V114.821H387.431V117.533H377.327V100.589H387.431V103.277H380.711ZM414.921 100.781V117.533H411.561V105.845L407.265 117.533H404.337L400.041 105.893V117.533H396.657V100.781H400.761L405.849 113.381L410.841 100.781H414.921Z" fill="white"/>
<defs>
<radialGradient id="paint0_angular_160_925" cx="0" cy="0" r="1" gradientUnits="userSpaceOnUse" gradientTransform="translate(111.533 36.5332) rotate(55.0975) scale(104.862 103.863)">
<stop offset="0.26918" stop-color="#009DD3"/>
<stop offset="0.998917" stop-color="white"/>
<stop offset="0.999017" stop-color="#313235"/>
</radialGradient>
</defs>
</svg>
